<svg width="320" height="28" viewBox="0 0 320 28" xmlns="http://www.w3.org/2000/svg"><title>branding/thg-logo 1.2</title><path d="M317.565.936c-2.014-.605-4.163-.891-6.262-.891-5.125 0-10.538 1.942-10.538 7.053 0 8.586 14.452 7.455 14.452 13.778 0 2.836-3.619 4.21-6.012 4.21-3.277 0-6.72-1.3-9.2-3.369l1.214 5.075c2.399.842 4.959 1.208 7.526 1.208C315.298 28 320 23.949 320 19.615c0-7.494-14.445-7.412-14.445-12.975 0-2.784 3.02-3.673 5.412-3.673 2.35 0 4.961.919 6.598 2.55V.937zm-20.994 0c-2.018-.605-4.162-.891-6.257-.891-5.135 0-10.55 1.942-10.55 7.053 0 8.586 14.452 7.455 14.452 13.778 0 2.836-3.615 4.21-6.01 4.21-3.272 0-6.72-1.3-9.202-3.369l1.223 5.075c2.392.842 4.952 1.208 7.522 1.208 6.552 0 11.26-4.051 11.26-8.385 0-7.494-14.457-7.412-14.457-12.975 0-2.784 3.032-3.673 5.419-3.673 2.355 0 4.966.919 6.6 2.55V.937zM267.833 14.35L263.71 4.146l-4.152 10.204h8.275zm1.214 2.995H258.46l-2.188 5.715c-.878 2.276-1.168 3.442.847 4.174v.124h-7.732v-.124c2.44-1.178 3.152-3.449 4.07-5.761l7.024-16.891c.585-1.46 1.385-3.159-.632-3.764v-.13h6.635l8.745 20.785c.963 2.312 1.722 4.583 4.113 5.761v.124h-8.61v-.124c2.062-.895 1.72-1.34.59-4.174l-2.275-5.715zm-33.31 6.732V6.41c0-1.827-.288-4.825 1.856-5.591v-.13h-8.028v.13c2.146.766 1.881 3.72 1.881 5.591v15.274c0 1.82.265 4.82-1.881 5.551v.124h17.264l2.189-5.39h-.136c-2.084 1.707-4.567 2.636-7.43 2.474l-5.715-.365zM224.447.738c-2.191-.446-4.373-.693-6.605-.693-10.163 0-17.353 5.434-17.353 14.144 0 8.14 6.348 13.811 17.108 13.811 3.4 0 6.684-.598 10.044-1.208-.255-.571-.21-1.223-.21-1.835V15.64c0-.605 0-1.255.21-1.74v-.129h-6.44v.128c1.9.727 1.942 2.714 1.942 4.576v5.833a22.129 22.129 0 0 1-5.848.777c-6.628 0-12.013-4.942-12.013-11.462 0-6.526 5.003-10.657 11.553-10.657 2.57 0 5.753.56 7.481 2.426h.13V.738zm-54.272-.05v.13c2.142.766 1.856 3.72 1.856 5.591v15.274c0 1.82.286 4.82-1.856 5.551v.124h8.029v-.124c-2.144-.732-1.894-3.691-1.894-5.55V3.526c.968-.157 1.894-.278 2.854-.32 2.81-.127 5.425 1.575 5.425 4.499 0 3.803-3.909 5.305-7.269 5.788l3.865 5.717 5.125 6.125c1.265 1.488 2.65 2.022 4.875 2.022h3.864c-2.397-1.464-5.037-3.573-6.803-5.675l-6.056-7.333c3.45-.773 6.685-3.568 6.685-7.132 0-3.69-3.067-6.53-8.702-6.53h-9.998zm-8.95 26.67h6.178v-.124c-2.139-.77-1.886-3.73-1.886-5.55V6.408c0-1.871-.253-4.825 1.886-5.591l-.043-.13h-7.98v.13c2.107.766 1.846 3.72 1.846 5.546v12.199c0 1.462.045 2.473-.878 3.689-1.387 1.9-3.784 2.834-6.133 2.834-4.327 0-6.686-2.512-6.686-7.893V6.364c0-1.826-.247-4.78 1.85-5.546v-.13h-7.98v.13c2.14.766 1.85 3.72 1.85 5.546v10.829c0 2.904-.082 5.618 2.146 7.97 1.887 1.987 4.83 2.837 7.602 2.837 2.945 0 6.383-.977 8.229-3.323v2.68zm-36.333-24.44c-6.51 0-10.671 4.542-10.671 10.66 0 5.673 4.161 11.508 10.747 11.508 6.4 0 10.467-4.5 10.467-10.533 0-5.915-3.907-11.634-10.543-11.634zm.29-2.913c8.83-.037 15.042 6.439 15.042 13.74 0 8.26-7.096 14.255-15.462 14.255-8.314 0-15.334-5.748-15.334-14.069 0-7.689 6.942-14.128 15.755-13.926zM102.159 14.35v7.333c0 1.82.296 4.781-1.842 5.551v.124h8.023v-.124c-2.143-.77-1.89-3.73-1.89-5.55V6.363c0-1.826-.253-4.78 1.89-5.546v-.13h-8.023v.13c2.138.766 1.842 3.72 1.842 5.591v5.019H86.999V6.409c0-1.871-.255-4.825 1.841-5.591v-.13h-7.98v.13c2.141.766 1.848 3.72 1.848 5.546v15.32c0 1.82.255 4.78-1.848 5.55v.124h7.98v-.124c-2.096-.77-1.841-3.73-1.841-5.55V14.35h15.159zm-43.924 0h3.112c1.301 0 3.058-.038 3.736 1.13h.125v-4.287h-.125c-.5.235-1.178.235-1.849.235h-5V3.886c1.345-.236 2.818-.278 4.286-.278 1.93 0 3.657.165 4.958 1.62h.127V.49h-.127c-.551.278-1.26.197-1.972.197H52.057v.13c2.144.766 1.892 3.72 1.892 5.591v15.274c0 1.82.252 4.82-1.892 5.551v.124h17.52l1.895-5.32h-.133c-2.103 1.789-4.997 2.639-7.766 2.404l-5.34-.493V14.35zm-14.245 0v7.333c0 1.82.295 4.781-1.843 5.551v.124h8.017v-.124c-2.139-.77-1.884-3.73-1.884-5.55V6.363c0-1.826-.255-4.78 1.884-5.546v-.13h-8.017v.13c2.138.766 1.843 3.72 1.843 5.591v5.019H28.826V6.409c0-1.871-.248-4.825 1.843-5.591v-.13h-7.978v.13c2.14.766 1.847 3.72 1.847 5.546v15.32c0 1.82.252 4.78-1.847 5.55v.124h7.978v-.124c-2.09-.77-1.843-3.73-1.843-5.55V14.35h15.163zM13.11 3.608v18.48c0 2.307-.046 3.89 2.185 5.146v.124h-8.32v-.124c2.098-.77 1.848-3.73 1.848-5.55V3.607h-3.7c-1.804 0-3.694.446-4.996 1.62H0L1.47.411H1.6c.5.202 1.049.202 1.592.276H19.91c.716 0 1.392-.039 1.942-.276h.118l-1.344 4.815h-.12c-.54-1.42-2.228-1.619-3.62-1.619h-3.777z" fill="#2D3236" fill-rule="evenodd"/></svg>